/* XPM */
static char *arrow_u_l_icon[]={
"15 40 4 1",
"a c #0000FF",
"b c #FFFFFF",
"c c #ff0000",
"d c #000000",
"bbbbbbbbbbbbbbb",
"bbbbbbbbbbbbbbb",
"bbbbbbbbbbbabbb",
"bbbbbbbbbbaabbb",
"bbbbbbbbbaaabbb",
"bbbbbbbbaaaabbb",
"bbbbbbbaaababbb",
"bbbbbbaabbbabbb",
"bbbbbbbbbbbabbb",
"bbbbbbbbbbbabbb",
"bbbbbbbbbbbabbb",
"bbbbbbbbbbbabbb",
"bbbbdddddddabbb",
"bbbbdbbbbbbabbb",
"bbbbdbbbbbbabbb",
"bbbbdbbbbbbabbb",
"bbbbdddddddabbb",
"bbbbbbbdbbbabbb",
"bbbbbbbdbbbabbb",
"bbbbbbbdbbbabbb",
"bbbbbbbdbbbabbb",
"bbbbbbdddddabbb",
"bbbbbbdbbbbabbb",
"bbbbbbdbbbbabbb",
"bbbbbbdbbbbabbb",
"bbbddddddddabbb",
"bbbdbbbbbbbabbb",
"bbbdbbbbbbbabbb",
"bbbdbbbbbbbabbb",
"bbbddddddddabbb",
"bbbbbdbbbbbabbb",
"bbbbbdbbbbbabbb",
"bbbbbdbbbbbabbb",
"bbbbbdbbbbbbbbb",
"bbbbbdbbbbbcbbb",
"bbbbbdbbbbcccbb",
"bbbbbdddbcccccb",
"bbbbbbbbbbcccbb",
"bbbbbbbbbbbcbbb",
"bbbbbbbbbbbbbbb"};