/* XPM */
static char *arrow_u_r_icon[]={
"15 40 4 1",
"a c #0000FF",
"b c #FFFFFF",
"c c #ff0000",
"d c #000000",
"bbbbbbbbbbbbbbb",
"bbbbbbbbbbbcbbb",
"bbbbbbbbbbcccbb",
"bbbbbdddbcccccb",
"bbbbbdbbbbcccbb",
"bbbbbdbbbbbcbbb",
"bbbbbdbbbbbbbbb",
"bbbbbdbbbbbabbb",
"bbbbbdbbbbbabbb",
"bbbbbdbbbbbabbb",
"bbbddddddddabbb",
"bbbdbbbbbbbabbb",
"bbbdbbbbbbbabbb",
"bbbdbbbbbbbabbb",
"bbbddddddddabbb",
"bbbbbbdbbbbabbb",
"bbbbbbdbbbbabbb",
"bbbbbbdbbbbabbb",
"bbbbbbdddddabbb",
"bbbbbbbdbbbabbb",
"bbbbbbbdbbbabbb",
"bbbbbbbdbbbabbb",
"bbbbbbbdbbbabbb",
"bbbbdddddddabbb",
"bbbbdbbbbbbabbb",
"bbbbdbbbbbbabbb",
"bbbbdbbbbbbabbb",
"bbbbdddddddabbb",
"bbbbbbbbbbbabbb",
"bbbbbbbbbbbabbb",
"bbbbbbbbbbbabbb",
"bbbbbbbbbbbabbb",
"bbbbbbaabbbabbb",
"bbbbbbbaaababbb",
"bbbbbbbbaaaabbb",
"bbbbbbbbbaaabbb",
"bbbbbbbbbbaabbb",
"bbbbbbbbbbbabbb",
"bbbbbbbbbbbbbbb",
"bbbbbbbbbbbbbbb"};