/* XPM */
static char *arrow_u_l_icon[]={
"15 40 4 1",
"a c #000000",
"# c #0000ff",
"b c #ff0000",
". c #ffffff",
"...............",
"...............",
"...#...........",
"...##..........",
"...###.........",
"...####........",
"...#.###.......",
"...#...##......",
"...#...........",
"...#...........",
"...#...........",
"...#...........",
"...#aaaaaaa....",
"...#......a....",
"...#......a....",
"...#......a....",
"...#aaaaaaa....",
"...#...a.......",
"...#...a.......",
"...#...a.......",
"...#...a.......",
"...#aaaaa......",
"...#....a......",
"...#....a......",
"...#....a......",
"...#aaaaaaaa...",
"...#.......a...",
"...#.......a...",
"...#.......a...",
"...#aaaaaaaa...",
"...#.....a.....",
"...#.....a.....",
"...#.....a.....",
".........a.....",
"...b.....a.....",
"..bbb....a.....",
".bbbbb.aaa.....",
"..bbb..........",
"...b...........",
"..............."};
