/* XPM */
static char *arrow_l_u_icon[]={
"40 15 4 1",
"a c #0000FF",
"b c #FFFFFF",
"c c #ff0000",
"d c #000000",
"bbbbbbbbbbbbbbbbbbbbbbbbbbbbbbbbbbbbbbbb",
"bbbbbbbbbbbbbbbbbbbbbbbbbbbbbbbbbbbbcbbb",
"bbbbbbbbbbbbbbbbbbbbbbbbbbbbbbbbbbbcccbb",
"bbaaaaaaaaaaaaaaaaaaaaaaaaaaaaaaabcccccb",
"bbbaaabbbbbbdbbbdbbbbdbbbdbbbdbbbbbcccbb",
"bbbbaaabbbbbdbbbdbbbbdbbbdbbbdbbbbbbcbbb",
"bbbbbaabbbbbdbbbdbbbbdbbbdbbbdbbbbbbbbbb",
"bbbbbbaabbbbdbbbddddddbbbdbbbdbbbbbbdbbb",
"bbbbbbbabbbbdbbbdbbbbdddddbbbdbbbbbbdbbb",
"bbbbbbbbbbbbdbbbdbbbbbbbbdbbbddddddddbbb",
"bbbbbbbbbbbbdddddbbbbbbbbdbbbdbbbbbbbbbb",
"bbbbbbbbbbbbbbbbbbbbbbbbbdddddbbbbbbbbbb",
"bbbbbbbbbbbbbbbbbbbbbbbbbbbbbbbbbbbbbbbb",
"bbbbbbbbbbbbbbbbbbbbbbbbbbbbbbbbbbbbbbbb",
"bbbbbbbbbbbbbbbbbbbbbbbbbbbbbbbbbbbbbbbb"};

