/* XPM */
static char *arrow_u_r_icon[]={
"15 40 4 1",
"a c #0000FF",
"b c #FFFFFF",
"c c #ff0000",
"d c #000000",
"bbbbbbbbbbbbbbb",
"bbbcbbbbbbbbbbb",
"bbcccbbbbbbbbbb",
"bcccccbdddbbbbb",
"bbcccbbbbdbbbbb",
"bbbcbbbbbdbbbbb",
"bbbbbbbbbdbbbbb",
"bbbabbbbbdbbbbb",
"bbbabbbbbdbbbbb",
"bbbabbbbbdbbbbb",
"bbbaddddddddbbb",
"bbbabbbbbbbdbbb",
"bbbabbbbbbbdbbb",
"bbbabbbbbbbdbbb",
"bbbaddddddddbbb",
"bbbabbbbdbbbbbb",
"bbbabbbbdbbbbbb",
"bbbabbbbdbbbbbb",
"bbbadddddbbbbbb",
"bbbabbbdbbbbbbb",
"bbbabbbdbbbbbbb",
"bbbabbbdbbbbbbb",
"bbbabbbdbbbbbbb",
"bbbadddddddbbbb",
"bbbabbbbbbdbbbb",
"bbbabbbbbbdbbbb",
"bbbabbbbbbdbbbb",
"bbbadddddddbbbb",
"bbbabbbbbbbbbbb",
"bbbabbbbbbbbbbb",
"bbbabbbbbbbbbbb",
"bbbabbbbbbbbbbb",
"bbbabbbaabbbbbb",
"bbbabaaabbbbbbb",
"bbbaaaabbbbbbbb",
"bbbaaabbbbbbbbb",
"bbbaabbbbbbbbbb",
"bbbabbbbbbbbbbb",
"bbbbbbbbbbbbbbb",
"bbbbbbbbbbbbbbb"};